<?xml version="1.0" encoding="UTF-8"?>
<svg id="Layer_1" data-name="Layer 1" xmlns="http://www.w3.org/2000/svg" viewBox="0 0 24 24">
  <defs>
    <style>
      .cls-1 {
        fill-rule: evenodd;
      }
    </style>
  </defs>
  <path d="M9.75,14.62c.31,0,.55.25.55.55,0,0,0,0,0,0v1.94c0,.31-.25.55-.55.55h-1.94c-.31,0-.55-.25-.55-.55h0v-1.94c0-.31.25-.55.55-.55h1.94Z"/>
  <path class="cls-1" d="M17.34,2.55c0-.31-.25-.55-.55-.55,0,0,0,0,0,0h-.87c-.31,0-.55.25-.55.55,0,0,0,0,0,0v1.52h-6.8v-1.52c0-.31-.25-.55-.55-.55h-.87c-.31,0-.55.25-.55.55v1.53c-2,.13-3.56,1.78-3.56,3.79v10.33c0,2.1,1.7,3.79,3.79,3.79h10.33c2.1,0,3.79-1.7,3.79-3.79V7.87c0-2.03-1.59-3.7-3.62-3.79v-1.53ZM15.92,9.44h3.06v8.77c0,1-.81,1.82-1.82,1.82H6.83c-1,0-1.82-.81-1.82-1.82v-8.77h10.91Z"/>
</svg>