<?xml version="1.0" encoding="UTF-8"?>
<svg id="Layer_1" data-name="Layer 1" xmlns="http://www.w3.org/2000/svg" viewBox="0 0 24 24">
  <path d="M13.56,2c-.79,0-1.54.36-2.03.98-.89-1.12-2.53-1.31-3.65-.42-.62.49-.98,1.24-.98,2.04,0,2.97,3.17,5.05,4.27,5.68.23.13.51.13.74,0,1.1-.63,4.26-2.71,4.26-5.68,0-1.44-1.16-2.6-2.6-2.6Z"/>
  <path d="M7.14,13.88c-2.91,1.17-4.81,3.98-4.81,7.12v.42c0,.32.26.58.58.58,0,0,0,0,0,0h7.93c2.1,0,4.09-.97,5.39-2.62l5.15-6.57c.48-.62.37-1.5-.25-1.98-.56-.43-1.35-.39-1.85.1l-5.12,5.03c-.37.36-.83.6-1.34.7l-1.89.35c-.73.13-1.1-.84-.47-1.22l2.96-1.85c.56-.35.73-1.09.38-1.66-.31-.49-.92-.69-1.46-.48l-5.19,2.09Z"/>
</svg>