<?xml version="1.0" encoding="UTF-8"?>
<svg id="Layer_1" data-name="Layer 1" xmlns="http://www.w3.org/2000/svg" viewBox="0 0 24 24">
  <path d="M5.94,10.37c.3.21.65-.06.69-.41.25-2.11,1.76-3.78,3.71-4.39.29-.09.48-.4.34-.67-.55-1.03-1.71-1.74-2.98-1.74-1.88,0-3.39,1.52-3.25,3.39.15,2.01.63,3.22,1.49,3.82Z"/>
  <path d="M17.37,9.92c.04.37.41.63.7.42.85-.62,1.34-1.82,1.46-3.78.22-1.86-1.42-3.39-3.3-3.39-1.23-.01-2.36.67-2.93,1.76-.14.27.05.58.34.67,1.9.6,3.48,2.21,3.72,4.32Z"/>
  <path d="M8.49,10.84c.26,3.33,1.33,4.6,3.49,4.6s3.31-1.29,3.53-4.6c.23-2-1.53-3.64-3.53-3.64s-3.64,1.63-3.49,3.64Z"/>
  <path d="M18.15,20.52c0-1.62-.99-3.08-2.55-3.52-1.16-.32-2.51-.61-3.59-.61s-2.44.29-3.59.61c-1.56.43-2.55,1.9-2.55,3.52,0,.18.14.32.32.32h11.65c.18,0,.32-.14.32-.32Z"/>
  <path d="M17.82,11.89c-.29-.04-.55.15-.6.44,0,0,0,0,0,0-.12.79-.35,1.55-.69,2.27-.15.32-.01.71.31.86,0,0,0,0,0,0,.22.1.42.21.62.33.09.06.19.09.29.09h3.94c.17,0,.3-.13.3-.3h0c0-1.51-.92-2.88-2.38-3.28-.57-.16-1.19-.31-1.8-.41Z"/>
  <path d="M7.15,15.47c.32-.15.46-.53.31-.86,0,0,0,0,0,0-.34-.72-.57-1.49-.69-2.28-.04-.29-.31-.48-.59-.44,0,0,0,0,0,0-.61.11-1.23.26-1.8.42-1.45.4-2.38,1.77-2.38,3.28,0,.17.13.3.3.3h3.94c.1,0,.21-.03.29-.09.2-.12.4-.23.62-.33Z"/>
</svg>