<?xml version="1.0" encoding="UTF-8"?>
<svg id="Layer_1" data-name="Layer 1" xmlns="http://www.w3.org/2000/svg" viewBox="0 0 24 24">
  <defs>
    <style>
      .cls-1 {
        fill-rule: evenodd;
      }
    </style>
  </defs>
  <path class="cls-1" d="M12,22c5.52,0,10-4.48,10-10S17.52,2,12,2,2,6.48,2,12s4.48,10,10,10h0ZM11.57,17.52c-.3,0-.55-.25-.55-.55h0v-3.99h-3.99c-.3,0-.55-.25-.55-.55h0v-.86c0-.3.25-.55.55-.55h3.99v-3.99c0-.3.25-.55.55-.55h.86c.3,0,.55.25.55.55h0v3.99h3.99c.3,0,.55.25.55.55h0v.86c0,.3-.25.55-.55.55h-3.99v3.99c0,.3-.25.55-.55.55h-.86Z"/>
</svg>