<?xml version="1.0" encoding="UTF-8"?>
<svg id="Layer_1" data-name="Layer 1" xmlns="http://www.w3.org/2000/svg" viewBox="0 0 24 24">
  <path d="M12,2C6.49,2,2,6.49,2,12s4.49,10,10,10,10-4.49,10-10S17.51,2,12,2ZM18.68,10.28l-3.08,3,.73,4.24c.02.13-.03.27-.14.35-.06.05-.14.07-.21.07-.06,0-.11-.01-.17-.04l-3.81-2-3.81,2c-.12.06-.27.05-.38-.03-.11-.08-.17-.22-.14-.35l.73-4.24-3.08-3c-.1-.09-.13-.24-.09-.37.04-.13.15-.22.29-.24l4.26-.62,1.9-3.86c.12-.24.52-.24.64,0l1.9,3.86,4.26.62c.13.02.25.11.29.24.04.13,0,.27-.09.37h0Z"/>
</svg>